<?xml version="1.0" encoding="utf-8"?>
<!-- Generator: Adobe Illustrator 24.2.3, SVG Export Plug-In . SVG Version: 6.00 Build 0)  -->
<svg version="1.1" id="Layer_1" xmlns="http://www.w3.org/2000/svg" xmlns:xlink="http://www.w3.org/1999/xlink" x="0px" y="0px"
	 viewBox="0 0 18 18" enable-background="new 0 0 18 18" xml:space="preserve">
<path fill="none" stroke="#263238" stroke-linecap="round" stroke-linejoin="round" stroke-miterlimit="10" d="M6.5,6.5v-4
	c0-0.6,0.3-1,0.8-1h8.5c0.5,0,0.8,0.4,0.8,1v13c0,0.6-0.3,1-0.8,1H7.3c-0.5,0-0.8-0.4-0.8-1v-3"/>
<line fill="none" stroke="#263238" stroke-linecap="round" stroke-linejoin="round" stroke-miterlimit="10" x1="14.5" y1="5.5" x2="8.5" y2="5.5"/>
<line fill="none" stroke="#263238" stroke-linecap="round" stroke-linejoin="round" stroke-miterlimit="10" x1="14.5" y1="8.5" x2="12.5" y2="8.5"/>
<line fill="none" stroke="#263238" stroke-linecap="round" stroke-linejoin="round" stroke-miterlimit="10" x1="14.5" y1="11.5" x2="12" y2="11.5"/>
<line fill="none" stroke="#263238" stroke-linecap="round" stroke-linejoin="round" stroke-miterlimit="10" x1="14.5" y1="14.5" x2="8.5" y2="14.5"/>
<path fill="none" stroke="#297FFF" stroke-linecap="round" stroke-linejoin="round" stroke-miterlimit="10" d="M10,17.5"/>
<line fill="none" stroke="#263238" stroke-width="2" stroke-linecap="round" stroke-linejoin="round" stroke-miterlimit="10" x1="7" y1="2.5" x2="16" y2="2.5"/>
<g>
	<polyline fill="none" stroke="#297FFF" stroke-linecap="round" stroke-linejoin="round" stroke-miterlimit="10" points="8.7,7.7 
		10.5,9.5 8.7,11.3 	"/>
	<path fill="none" stroke="#297FFF" stroke-linecap="round" stroke-linejoin="round" stroke-miterlimit="10" d="M1.5,14
		c0-2.5,2-4.5,4.5-4.5h3.2"/>
	<path fill="none" stroke="#297FFF" stroke-linecap="round" stroke-linejoin="round" stroke-miterlimit="10" d="M1.5,5
		c0,2.5,2,4.5,4.5,4.5h4.1"/>
</g>
</svg>
